<!-- Generator: Adobe Illustrator 18.1.1, SVG Export Plug-In  -->
<svg version="1.1"
   xmlns="http://www.w3.org/2000/svg" xmlns:xlink="http://www.w3.org/1999/xlink" xmlns:a="http://ns.adobe.com/AdobeSVGViewerExtensions/3.0/"
   x="0px" y="0px" width="81.3px" height="106.8px" viewBox="0 0 81.3 106.8" enable-background="new 0 0 81.3 106.8"
   xml:space="preserve">
<defs>
</defs>
<g>
  <path fill="#FFFFFF" stroke="#000000" stroke-width="4" stroke-miterlimit="10" d="M45.4,6.1c-0.8,16.1,3.3,26.4,7.1,32.7
    c6,10,12.7,12.7,17.3,25.2c1.9,5.2,4.7,12.8,1.8,20.8c-3.6,9.9-13.6,14.1-19,16.4c-0.9,0.4-22.4,9-39.4-2.2
    c-3.2-2.1-8.9-5.9-9.7-12.4c-0.9-6.9,4.3-12.3,5.3-13.3c4.6-4.6,10.3-5.2,11.9-5.3"/>
  <g>
    <path d="M18.5,21c-1.3,2.2-2.9,3.8-4.8,4.9c-1.9,1.1-3.6,1.7-5.1,1.7c-2.2,0-4.2-0.9-5.9-2.8C0.9,22.9,0,20,0,16.2
      c0-3,0.6-5.7,1.7-8.1c1.2-2.4,2.7-4.3,4.6-5.6c1.9-1.4,4.3-2.1,7.2-2.1c0.8,0,2.1,0.1,3.7,0.3c0.2,0,0.6,0.1,1.1,0.1h4.4v18.5
      c0,3.2,0.3,5.7,1,7.7h-4.5C18.9,25.5,18.7,23.5,18.5,21z M18.5,15.8V4.6c-1.5-0.4-3-0.6-4.3-0.6c-2.7,0-4.9,1-6.7,3.1
      C5.6,9.2,4.7,12,4.7,15.6c0,2.6,0.5,4.6,1.5,5.9c1,1.3,2.1,2,3.3,2c1.4,0,2.9-0.7,4.5-2.1C15.7,20,17.2,18.2,18.5,15.8z"/>
  </g>
  <g>
    <path d="M80.9,25.2c-3.5,1.6-6.8,2.5-9.9,2.5c-2.4,0-4.5-0.6-6.3-1.8s-3.3-2.8-4.5-5s-1.7-4.5-1.7-7c0-2.4,0.5-4.7,1.6-6.9
      s2.5-3.9,4.5-5.1s4-1.8,6.4-1.8c3.1,0,5.6,1.1,7.5,3.3c1.9,2.2,2.8,5.6,2.8,10.2v0.9h-18c0,1.8,0.4,3.5,1.1,5
      c0.8,1.5,1.8,2.6,3,3.4c1.2,0.8,2.6,1.1,4.2,1.1c2.8,0,5.9-0.9,9.3-2.8V25.2z M63.5,11.2h13.1v-0.6c0-2.1-0.5-3.8-1.6-5.1
      s-2.4-1.9-4.2-1.9c-1.8,0-3.3,0.6-4.6,1.9S64,8.7,63.5,11.2z"/>
  </g>
</g>
</svg>
