<!-- Generator: Adobe Illustrator 18.1.1, SVG Export Plug-In  -->
<svg version="1.1"
   xmlns="http://www.w3.org/2000/svg" xmlns:xlink="http://www.w3.org/1999/xlink" xmlns:a="http://ns.adobe.com/AdobeSVGViewerExtensions/3.0/"
   x="0px" y="0px" width="82.3px" height="107.8px" viewBox="0 0 82.3 107.8" enable-background="new 0 0 82.3 107.8"
   xml:space="preserve">
<defs>
</defs>
<g>
  <path fill="#F1F2F2" stroke="#F1F2F2" stroke-miterlimit="10" d="M34,107.3c-6.8,0-14.5-1.4-21.6-6.1C9.1,99,2.8,94.8,1.8,87.4
    c-1-7.5,4.3-13.3,5.9-14.9c4.7-4.7,10.3-5.7,13.2-5.9l0.3,4c-1.9,0.1-6.8,0.9-10.7,4.7c-1.3,1.3-5.5,5.9-4.7,11.6
    c0.7,5.6,5.8,9,8.9,11c16.2,10.7,37.3,2.1,37.5,2c5.1-2.1,14.6-6.1,17.9-15.2c2.6-7.3,0.1-14.3-1.8-19.4c-2.6-7.2-6-10.9-9.5-15
    c-2.5-2.8-5.1-5.7-7.6-9.9c-5.5-9.3-8-20.6-7.4-33.9l4,0.2c-0.6,12.4,1.7,23.1,6.8,31.6c2.3,3.9,4.8,6.6,7.1,9.3
    c3.7,4.1,7.4,8.4,10.3,16.2c2,5.4,4.9,13.5,1.8,22.2c-3.9,10.8-14.5,15.2-20.1,17.5C53.1,103.8,44.6,107.3,34,107.3z"/>
  <g>
    <path fill="#F1F2F2" stroke="#F1F2F2" d="M19,21.5c-1.3,2.2-2.9,3.8-4.8,4.9c-1.9,1.1-3.6,1.7-5.1,1.7c-2.2,0-4.2-0.9-5.9-2.8
      c-1.7-1.9-2.6-4.8-2.6-8.6c0-3,0.6-5.7,1.7-8.1c1.2-2.4,2.7-4.3,4.6-5.6c1.9-1.4,4.3-2.1,7.2-2.1c0.8,0,2.1,0.1,3.7,0.3
      c0.2,0,0.6,0.1,1.1,0.1h4.4v18.5c0,3.2,0.3,5.7,1,7.7h-4.5C19.4,26,19.2,24,19,21.5z M19,16.3V5.1c-1.5-0.4-3-0.6-4.3-0.6
      c-2.7,0-4.9,1-6.7,3.1c-1.8,2.1-2.7,4.9-2.7,8.5c0,2.6,0.5,4.6,1.5,5.9c1,1.3,2.1,2,3.3,2c1.4,0,2.9-0.7,4.5-2.1
      C16.2,20.5,17.7,18.7,19,16.3z"/>
  </g>
  <g>
    <path fill="#F1F2F2" stroke="#F1F2F2" d="M81.4,25.7c-3.5,1.6-6.8,2.5-9.9,2.5c-2.4,0-4.5-0.6-6.3-1.8s-3.3-2.8-4.5-5
      s-1.7-4.5-1.7-7c0-2.4,0.5-4.7,1.6-6.9s2.5-3.9,4.5-5.1s4-1.8,6.4-1.8c3.1,0,5.6,1.1,7.5,3.3c1.9,2.2,2.8,5.6,2.8,10.2V15h-18
      c0,1.8,0.4,3.5,1.1,5c0.8,1.5,1.8,2.6,3,3.4c1.2,0.8,2.6,1.1,4.2,1.1c2.8,0,5.9-0.9,9.3-2.8V25.7z M64,11.8H77v-0.6
      C77,9,76.5,7.3,75.5,6S73,4.1,71.3,4.1c-1.8,0-3.3,0.6-4.6,1.9S64.5,9.2,64,11.8z"/>
  </g>
</g>
</svg>
