<?xml-stylesheet type="text/css" href="../css/scorePill.css" ?>
<svg class="scorePill" version="1.1"
   xmlns="http://www.w3.org/2000/svg" xmlns:xlink="http://www.w3.org/1999/xlink" xmlns:a="http://ns.adobe.com/AdobeSVGViewerExtensions/3.0/"
   x="0px" y="0px" viewBox="0 0 201 36.8" enable-background="new 0 0 201 36.8" xml:space="preserve"
  >
<defs>
</defs>
<rect class="score scoreBg" x="0.5" y="0.5" fill="#cccccc" stroke="#000000" stroke-miterlimit="10" width="200" height="35.4"/>
<rect class="score score3" x="0.5" y="0.5" fill="#FFFFFF" stroke="#000000" stroke-miterlimit="10" width="200" height="35.4"/>
<rect class="score score2" x="1.6" y="0.5" fill="#FFFFFF" stroke="#000000" stroke-miterlimit="10" width="150" height="35.4"/>
<rect class="score score1" x="1.1" y="0.5" fill="#FFFFFF" stroke="#000000" stroke-miterlimit="10" width="100" height="35.4"/>
<rect class="score score0" x="1.1" y="0.5" fill="#FFFFFF" stroke="#000000" stroke-miterlimit="10" width="50" height="35.4"/>

<!-- letter paths -->
<g>
  <path d="M17.1,10.1V5.7h0.7v1c0.2-0.3,0.5-0.6,0.8-0.8s0.6-0.3,0.9-0.3c0.3,0,0.5,0.1,0.7,0.2s0.4,0.3,0.4,0.5s0.1,0.7,0.1,1.3v2.4
    H20V7.6c0-0.4,0-0.7-0.1-0.8s-0.1-0.2-0.2-0.3s-0.2-0.1-0.4-0.1c-0.3,0-0.5,0.1-0.8,0.4S18,7.2,17.8,7.5v2.5H17.1z"/>
  <path d="M23.7,3.8c0.7,0,1.2,0.3,1.6,0.9s0.5,1.4,0.5,2.3c0,1-0.2,1.8-0.5,2.3c-0.4,0.6-0.9,0.9-1.6,0.9c-0.7,0-1.2-0.3-1.6-0.9
    c-0.4-0.6-0.5-1.4-0.5-2.3c0-1,0.2-1.8,0.5-2.3S23,3.8,23.7,3.8z M22.5,8.4l2.1-3.3c-0.1-0.2-0.3-0.4-0.4-0.5s-0.3-0.1-0.5-0.1
    c-0.4,0-0.8,0.2-1,0.7S22.4,6.3,22.4,7c0,0.2,0,0.4,0,0.5S22.4,8,22.5,8.4z M24.9,5.8l-2.1,3.3c0.1,0.2,0.2,0.3,0.4,0.4
    c0.1,0.1,0.3,0.1,0.5,0.1c0.5,0,0.8-0.3,1.1-0.8C24.9,8.3,25,7.7,25,7C25,6.6,25,6.2,24.9,5.8z"/>
  <path d="M28.5,3.8c0.7,0,1.2,0.3,1.6,0.9s0.5,1.4,0.5,2.3c0,1-0.2,1.8-0.5,2.3c-0.4,0.6-0.9,0.9-1.6,0.9c-0.7,0-1.2-0.3-1.6-0.9
    c-0.4-0.6-0.5-1.4-0.5-2.3c0-1,0.2-1.8,0.5-2.3S27.8,3.8,28.5,3.8z M27.3,8.4l2.1-3.3c-0.1-0.2-0.3-0.4-0.4-0.5s-0.3-0.1-0.5-0.1
    c-0.4,0-0.8,0.2-1,0.7S27.2,6.3,27.2,7c0,0.2,0,0.4,0,0.5S27.2,8,27.3,8.4z M29.7,5.8l-2.1,3.3c0.1,0.2,0.2,0.3,0.4,0.4
    c0.1,0.1,0.3,0.1,0.5,0.1c0.5,0,0.8-0.3,1.1-0.8c0.2-0.6,0.3-1.2,0.3-1.8C29.8,6.6,29.8,6.2,29.7,5.8z"/>
  <path d="M32.2,6.7c0.2-0.4,0.5-0.6,0.8-0.8c0.3-0.2,0.6-0.3,0.9-0.3c0.4,0,0.7,0.2,1,0.5s0.4,0.8,0.4,1.4c0,0.5-0.1,1-0.3,1.4
    c-0.2,0.4-0.5,0.7-0.8,0.9s-0.7,0.3-1.2,0.3c-0.1,0-0.3,0-0.6,0c0,0-0.1,0-0.2,0h-0.7V3.8h0.7V6.7z M32.2,7.6v1.9
    c0.3,0.1,0.5,0.1,0.7,0.1c0.4,0,0.8-0.2,1.1-0.5s0.5-0.8,0.5-1.4c0-0.4-0.1-0.8-0.2-1c-0.2-0.2-0.4-0.3-0.6-0.3
    c-0.2,0-0.5,0.1-0.7,0.3S32.4,7.2,32.2,7.6z"/>
</g>
<g>
  <path d="M65.5,10.1V3.8h0.7v2.9c0.2-0.3,0.5-0.6,0.8-0.8s0.6-0.3,0.9-0.3c0.2,0,0.5,0.1,0.7,0.2s0.3,0.3,0.4,0.5
    c0.1,0.1,0.1,0.3,0.1,0.4s0,0.5,0,1v2.4h-0.7V7.6c0-0.4,0-0.7-0.1-0.8s-0.1-0.2-0.2-0.3s-0.2-0.1-0.4-0.1c-0.3,0-0.5,0.1-0.8,0.4
    s-0.5,0.5-0.7,0.9v2.5H65.5z"/>
  <path d="M72.5,10.1V8.4h-2.6V7.8L72.5,4h0.7v3.8h1.1v0.6h-1.1v1.7H72.5z M72.5,7.8V5.1l-1.8,2.7H72.5z"/>
  <path d="M75.6,10.1h-0.8l1.7-2.3l-1.6-2.1h0.9l1.1,1.5L78,5.7h0.8l-1.5,2l1.8,2.3h-0.9l-1.3-1.7L75.6,10.1z"/>
  <path d="M81.7,3.8c0.7,0,1.2,0.3,1.6,0.9s0.5,1.4,0.5,2.3c0,1-0.2,1.8-0.5,2.3c-0.4,0.6-0.9,0.9-1.6,0.9c-0.7,0-1.2-0.3-1.6-0.9
    c-0.4-0.6-0.5-1.4-0.5-2.3c0-1,0.2-1.8,0.5-2.3S81.1,3.8,81.7,3.8z M80.6,8.4l2.1-3.3c-0.1-0.2-0.3-0.4-0.4-0.5s-0.3-0.1-0.5-0.1
    c-0.4,0-0.8,0.2-1,0.7S80.4,6.3,80.4,7c0,0.2,0,0.4,0,0.5S80.5,8,80.6,8.4z M82.9,5.8l-2.1,3.3c0.1,0.2,0.2,0.3,0.4,0.4
    c0.1,0.1,0.3,0.1,0.5,0.1c0.5,0,0.8-0.3,1.1-0.8C83,8.3,83.1,7.7,83.1,7C83.1,6.6,83,6.2,82.9,5.8z"/>
  <path d="M85.1,10.1V5.7h0.7v1c0.2-0.4,0.5-0.6,0.8-0.8s0.6-0.3,1-0.3c0.3,0,0.5,0,0.8,0.1v1.6h-0.7v-1c-0.1,0-0.2,0-0.3,0
    c-0.3,0-0.5,0.1-0.8,0.3s-0.5,0.5-0.8,1v2.5H85.1z"/>
</g>
<g>
  <path d="M118.6,9.5V4.8c-0.2,0.2-0.4,0.3-0.6,0.4c-0.2,0.1-0.5,0.2-0.8,0.4V5c0.6-0.2,1.1-0.6,1.5-0.9h0.7v5.5h1.5v0.6h-3.7V9.5
    H118.6z"/>
  <path d="M121.7,10V9.2c0.6,0.3,1.1,0.5,1.6,0.5c0.4,0,0.7-0.1,1-0.4c0.3-0.2,0.4-0.6,0.4-0.9c0-0.4-0.1-0.7-0.4-0.9
    s-0.8-0.4-1.5-0.4h-0.4V6.4h0.6c0.5,0,0.9-0.1,1.1-0.3s0.3-0.5,0.3-0.8c0-0.3-0.1-0.5-0.3-0.6s-0.5-0.3-0.9-0.3
    c-0.4,0-0.9,0.1-1.4,0.4V4.1c0.5-0.2,0.9-0.3,1.4-0.3c0.7,0,1.2,0.1,1.5,0.4s0.4,0.6,0.4,1c0,0.3-0.1,0.5-0.2,0.8s-0.4,0.5-0.8,0.6
    c0.4,0.1,0.6,0.2,0.8,0.4s0.3,0.3,0.4,0.5s0.1,0.4,0.1,0.7c0,0.6-0.2,1-0.6,1.4c-0.4,0.4-1,0.6-1.6,0.6c-0.2,0-0.4,0-0.6,0
    C122.3,10.2,122,10.1,121.7,10z"/>
  <path d="M126.5,10V9.2c0.6,0.3,1.1,0.5,1.6,0.5c0.4,0,0.7-0.1,1-0.4c0.3-0.2,0.4-0.6,0.4-0.9c0-0.4-0.1-0.7-0.4-0.9
    s-0.8-0.4-1.5-0.4h-0.4V6.4h0.6c0.5,0,0.9-0.1,1.1-0.3s0.3-0.5,0.3-0.8c0-0.3-0.1-0.5-0.3-0.6s-0.5-0.3-0.9-0.3
    c-0.4,0-0.9,0.1-1.4,0.4V4.1c0.5-0.2,0.9-0.3,1.4-0.3c0.7,0,1.2,0.1,1.5,0.4s0.4,0.6,0.4,1c0,0.3-0.1,0.5-0.2,0.8s-0.4,0.5-0.8,0.6
    c0.4,0.1,0.6,0.2,0.8,0.4s0.3,0.3,0.4,0.5s0.1,0.4,0.1,0.7c0,0.6-0.2,1-0.6,1.4c-0.4,0.4-1,0.6-1.6,0.6c-0.2,0-0.4,0-0.6,0
    C127.1,10.2,126.8,10.1,126.5,10z"/>
  <path d="M132,10.1V9.5c0-0.4,0-0.8,0.1-1.1s0.3-0.6,0.5-1s0.4-0.6,0.6-0.8l0.6-0.8l0.2-0.3c0.2-0.2,0.3-0.5,0.4-0.8h-3.1V4h3.8v0.5
    c0,0.2,0,0.4-0.1,0.5s-0.3,0.5-0.7,1.1c-0.1,0.1-0.2,0.3-0.3,0.4L133.7,7c-0.3,0.4-0.5,0.7-0.6,0.9c-0.1,0.2-0.2,0.4-0.3,0.7
    c-0.1,0.2-0.1,0.5-0.1,0.9v0.5H132z"/>
</g>
<g>
  <path d="M171.7,5.7v4.4H171v-1c-0.2,0.4-0.5,0.6-0.8,0.8s-0.6,0.3-0.9,0.3c-0.3,0-0.5-0.1-0.7-0.2s-0.4-0.3-0.4-0.5
    s-0.1-0.7-0.1-1.3V5.7h0.7v2.5c0,0.4,0,0.7,0.1,0.8c0,0.1,0.1,0.2,0.2,0.3s0.2,0.1,0.3,0.1c0.3,0,0.5-0.1,0.8-0.4
    c0.3-0.2,0.5-0.5,0.7-0.9V5.7H171.7z"/>
  <path d="M173.6,6.7c0.2-0.4,0.5-0.6,0.8-0.8c0.3-0.2,0.6-0.3,0.9-0.3c0.4,0,0.7,0.2,1,0.5s0.4,0.8,0.4,1.4c0,0.5-0.1,1-0.3,1.4
    c-0.2,0.4-0.5,0.7-0.8,0.9s-0.7,0.3-1.2,0.3c-0.1,0-0.3,0-0.6,0c0,0-0.1,0-0.2,0h-0.7V3.8h0.7V6.7z M173.6,7.6v1.9
    c0.3,0.1,0.5,0.1,0.7,0.1c0.4,0,0.8-0.2,1.1-0.5c0.3-0.3,0.5-0.8,0.5-1.4c0-0.4-0.1-0.8-0.2-1c-0.2-0.2-0.4-0.3-0.6-0.3
    c-0.2,0-0.5,0.1-0.7,0.3S173.8,7.2,173.6,7.6z"/>
  <path d="M181.4,9.8c-0.6,0.3-1.1,0.4-1.6,0.4c-0.4,0-0.7-0.1-1.1-0.3c-0.3-0.2-0.6-0.5-0.7-0.8c-0.2-0.4-0.3-0.8-0.3-1.2
    c0-0.4,0.1-0.8,0.3-1.1s0.4-0.7,0.7-0.9c0.3-0.2,0.7-0.3,1.1-0.3c0.5,0,0.9,0.2,1.2,0.6s0.5,0.9,0.5,1.7V8h-3
    c0,0.3,0.1,0.6,0.2,0.8c0.1,0.3,0.3,0.4,0.5,0.6c0.2,0.1,0.4,0.2,0.7,0.2c0.5,0,1-0.2,1.6-0.5V9.8z M178.4,7.5h2.2V7.4
    c0-0.4-0.1-0.6-0.3-0.8s-0.4-0.3-0.7-0.3c-0.3,0-0.5,0.1-0.8,0.3S178.5,7.1,178.4,7.5z"/>
  <path d="M182.9,10.1V5.7h0.7v1c0.2-0.4,0.5-0.6,0.8-0.8s0.6-0.3,1-0.3c0.3,0,0.5,0,0.8,0.1v1.6h-0.7v-1c-0.1,0-0.2,0-0.3,0
    c-0.3,0-0.5,0.1-0.8,0.3s-0.5,0.5-0.8,1v2.5H182.9z"/>
</g>
</svg>



