<?xml-stylesheet type="text/css" href="../css/scorePill.css" ?>
<svg class="scorePill" version="1.1"
   xmlns="http://www.w3.org/2000/svg" xmlns:xlink="http://www.w3.org/1999/xlink" xmlns:a="http://ns.adobe.com/AdobeSVGViewerExtensions/3.0/"
   x="0px" y="0px" viewBox="0 0 437.6 28.1" enable-background="new 0 0 437.6 28.1"
   xml:space="preserve">
<defs>
</defs>

<rect class="score scoreBg" x="0.5" y="0.5" fill="#cccccc" stroke="#000000" stroke-miterlimit="10" width="436.6" height="27.1"/>
<rect class="score score3" x="0.5" y="0.5" fill="#FFFFFF" stroke="#000000" stroke-miterlimit="10" width="436.6" height="27.1"/>
<rect class="score score2" x="2.9" y="0.5" fill="#FFFFFF" stroke="#000000" stroke-miterlimit="10" width="327.4" height="27.1"/>
<rect class="score score1" x="1.8" y="0.5" fill="#FFFFFF" stroke="#000000" stroke-miterlimit="10" width="218.3" height="27.1"/>
<rect class="score score0" x="1.8" y="0.5" fill="#FFFFFF" stroke="#000000" stroke-miterlimit="10" width="109.1" height="27.1"/>
<g>
  <path d="M42.6,17.1v-4.8h0.8v1c0.2-0.4,0.5-0.7,0.8-0.9c0.3-0.2,0.6-0.3,1-0.3c0.3,0,0.5,0.1,0.8,0.2c0.2,0.1,0.4,0.3,0.5,0.6
    s0.1,0.7,0.1,1.4v2.7h-0.8v-2.8c0-0.5,0-0.8-0.1-0.9s-0.1-0.3-0.2-0.4c-0.1-0.1-0.2-0.1-0.4-0.1c-0.3,0-0.6,0.1-0.9,0.4
    c-0.3,0.3-0.6,0.6-0.8,1v2.8H42.6z"/>
  <path d="M49.8,10.2c0.8,0,1.3,0.3,1.7,0.9c0.4,0.6,0.6,1.5,0.6,2.6c0,1.1-0.2,1.9-0.6,2.6c-0.4,0.6-1,0.9-1.7,0.9
    c-0.8,0-1.3-0.3-1.7-0.9c-0.4-0.6-0.6-1.5-0.6-2.6c0-1.1,0.2-1.9,0.6-2.6C48.5,10.6,49.1,10.2,49.8,10.2z M48.5,15.2l2.3-3.6
    c-0.1-0.3-0.3-0.4-0.5-0.5c-0.2-0.1-0.3-0.1-0.5-0.1c-0.5,0-0.8,0.3-1.1,0.8c-0.2,0.5-0.4,1.2-0.4,2c0,0.2,0,0.4,0,0.6
    C48.4,14.5,48.5,14.8,48.5,15.2z M51.1,12.4L48.8,16c0.1,0.2,0.3,0.4,0.4,0.5c0.2,0.1,0.3,0.2,0.5,0.2c0.5,0,0.9-0.3,1.1-0.9
    c0.2-0.6,0.3-1.3,0.3-2C51.3,13.2,51.2,12.8,51.1,12.4z"/>
  <path d="M55.1,10.2c0.8,0,1.3,0.3,1.7,0.9c0.4,0.6,0.6,1.5,0.6,2.6c0,1.1-0.2,1.9-0.6,2.6c-0.4,0.6-1,0.9-1.7,0.9
    c-0.8,0-1.3-0.3-1.7-0.9c-0.4-0.6-0.6-1.5-0.6-2.6c0-1.1,0.2-1.9,0.6-2.6C53.8,10.6,54.3,10.2,55.1,10.2z M53.8,15.2l2.3-3.6
    c-0.1-0.3-0.3-0.4-0.5-0.5c-0.2-0.1-0.3-0.1-0.5-0.1c-0.5,0-0.8,0.3-1.1,0.8c-0.2,0.5-0.4,1.2-0.4,2c0,0.2,0,0.4,0,0.6
    C53.7,14.5,53.7,14.8,53.8,15.2z M56.4,12.4L54.1,16c0.1,0.2,0.3,0.4,0.4,0.5c0.2,0.1,0.3,0.2,0.5,0.2c0.5,0,0.9-0.3,1.1-0.9
    c0.2-0.6,0.3-1.3,0.3-2C56.5,13.2,56.5,12.8,56.4,12.4z"/>
  <path d="M59.1,13.4c0.2-0.4,0.5-0.7,0.9-0.9c0.3-0.2,0.6-0.3,0.9-0.3c0.4,0,0.8,0.2,1.1,0.5c0.3,0.3,0.5,0.9,0.5,1.6
    c0,0.6-0.1,1-0.3,1.5c-0.2,0.4-0.5,0.8-0.8,1c-0.4,0.3-0.8,0.4-1.3,0.4c-0.1,0-0.4,0-0.7,0c0,0-0.1,0-0.2,0h-0.8v-6.9h0.8V13.4z
     M59.1,14.3v2c0.3,0.1,0.6,0.1,0.8,0.1c0.5,0,0.9-0.2,1.2-0.6c0.3-0.4,0.5-0.9,0.5-1.5c0-0.5-0.1-0.8-0.3-1.1
    c-0.2-0.2-0.4-0.4-0.6-0.4c-0.2,0-0.5,0.1-0.8,0.4S59.3,13.9,59.1,14.3z"/>
</g>
<g>
  <path d="M146.2,17.1v-6.9h0.8v3.2c0.2-0.4,0.5-0.7,0.8-0.9c0.3-0.2,0.6-0.3,1-0.3c0.3,0,0.5,0.1,0.7,0.2c0.2,0.1,0.4,0.3,0.5,0.5
    c0.1,0.2,0.1,0.3,0.1,0.5s0,0.5,0,1v2.7h-0.8v-2.8c0-0.5,0-0.8-0.1-0.9s-0.1-0.3-0.2-0.4c-0.1-0.1-0.2-0.1-0.4-0.1
    c-0.3,0-0.6,0.1-0.9,0.4c-0.3,0.3-0.6,0.6-0.8,1v2.8H146.2z"/>
  <path d="M153.8,17.1v-1.9H151v-0.7l2.8-4.1h0.8v4.1h1.2v0.7h-1.2v1.9H153.8z M153.8,14.5v-2.9l-2,2.9H153.8z"/>
  <path d="M157.2,17.1h-0.9l1.9-2.5l-1.7-2.3h1l1.2,1.6l1.2-1.6h0.9l-1.7,2.2l2,2.6h-1l-1.4-1.9L157.2,17.1z"/>
  <path d="M163.9,10.2c0.8,0,1.3,0.3,1.7,0.9c0.4,0.6,0.6,1.5,0.6,2.6c0,1.1-0.2,1.9-0.6,2.6c-0.4,0.6-1,0.9-1.7,0.9
    c-0.8,0-1.3-0.3-1.7-0.9c-0.4-0.6-0.6-1.5-0.6-2.6c0-1.1,0.2-1.9,0.6-2.6C162.5,10.6,163.1,10.2,163.9,10.2z M162.6,15.2l2.3-3.6
    c-0.1-0.3-0.3-0.4-0.5-0.5c-0.2-0.1-0.3-0.1-0.5-0.1c-0.5,0-0.8,0.3-1.1,0.8c-0.2,0.5-0.4,1.2-0.4,2c0,0.2,0,0.4,0,0.6
    C162.4,14.5,162.5,14.8,162.6,15.2z M165.1,12.4l-2.3,3.6c0.1,0.2,0.3,0.4,0.4,0.5c0.2,0.1,0.3,0.2,0.5,0.2c0.5,0,0.9-0.3,1.1-0.9
    c0.2-0.6,0.3-1.3,0.3-2C165.3,13.2,165.3,12.8,165.1,12.4z"/>
  <path d="M167.6,17.1v-4.8h0.8v1c0.2-0.4,0.5-0.7,0.9-0.9c0.3-0.2,0.7-0.3,1.1-0.3c0.3,0,0.6,0,0.9,0.1V14h-0.8v-1.1
    c-0.1,0-0.2,0-0.3,0c-0.3,0-0.6,0.1-0.9,0.3c-0.3,0.2-0.6,0.6-0.8,1v2.8H167.6z"/>
</g>
<g>
  <path d="M258,16.4v-5.1c-0.2,0.2-0.5,0.4-0.7,0.5c-0.2,0.1-0.5,0.3-0.9,0.4v-0.7c0.6-0.3,1.2-0.6,1.6-1h0.8v6h1.6v0.7h-4v-0.7H258z
    "/>
  <path d="M261.4,16.9v-0.8c0.7,0.3,1.2,0.5,1.7,0.5c0.4,0,0.8-0.1,1.1-0.4c0.3-0.3,0.4-0.6,0.4-1c0-0.4-0.2-0.8-0.5-1
    c-0.3-0.3-0.8-0.4-1.6-0.4h-0.4v-0.7h0.6c0.6,0,1-0.1,1.2-0.4s0.4-0.5,0.4-0.8c0-0.3-0.1-0.5-0.3-0.7s-0.5-0.3-0.9-0.3
    c-0.5,0-1,0.1-1.5,0.4v-0.8c0.5-0.2,1-0.3,1.5-0.3c0.8,0,1.4,0.2,1.7,0.5c0.3,0.3,0.5,0.7,0.5,1.1c0,0.3-0.1,0.6-0.2,0.8
    c-0.2,0.3-0.5,0.5-0.9,0.7c0.4,0.1,0.7,0.3,0.9,0.4c0.2,0.2,0.3,0.4,0.4,0.6s0.2,0.5,0.2,0.8c0,0.6-0.2,1.1-0.7,1.5
    c-0.5,0.4-1.1,0.6-1.8,0.6c-0.2,0-0.4,0-0.7,0S261.8,17.1,261.4,16.9z"/>
  <path d="M266.7,16.9v-0.8c0.7,0.3,1.2,0.5,1.7,0.5c0.4,0,0.8-0.1,1.1-0.4c0.3-0.3,0.4-0.6,0.4-1c0-0.4-0.2-0.8-0.5-1
    c-0.3-0.3-0.8-0.4-1.6-0.4h-0.4v-0.7h0.6c0.6,0,1-0.1,1.2-0.4s0.4-0.5,0.4-0.8c0-0.3-0.1-0.5-0.3-0.7s-0.5-0.3-0.9-0.3
    c-0.5,0-1,0.1-1.5,0.4v-0.8c0.5-0.2,1-0.3,1.5-0.3c0.8,0,1.4,0.2,1.7,0.5c0.3,0.3,0.5,0.7,0.5,1.1c0,0.3-0.1,0.6-0.2,0.8
    c-0.2,0.3-0.5,0.5-0.9,0.7c0.4,0.1,0.7,0.3,0.9,0.4c0.2,0.2,0.3,0.4,0.4,0.6s0.2,0.5,0.2,0.8c0,0.6-0.2,1.1-0.7,1.5
    c-0.5,0.4-1.1,0.6-1.8,0.6c-0.2,0-0.4,0-0.7,0S267,17.1,266.7,16.9z"/>
  <path d="M272.6,17.1v-0.6c0-0.5,0.1-0.9,0.2-1.2c0.1-0.3,0.3-0.7,0.6-1.1c0.3-0.4,0.5-0.7,0.6-0.9l0.7-0.9l0.2-0.3
    c0.2-0.3,0.4-0.5,0.5-0.9H272v-0.8h4.2V11c0,0.2,0,0.4-0.1,0.6c-0.1,0.2-0.3,0.6-0.8,1.1c-0.1,0.1-0.2,0.3-0.3,0.4l-0.4,0.6
    c-0.3,0.4-0.5,0.7-0.6,1c-0.1,0.2-0.2,0.5-0.3,0.7c-0.1,0.3-0.1,0.6-0.1,1v0.6H272.6z"/>
</g>
<g>
  <path d="M372.7,12.3v4.8H372v-1c-0.3,0.4-0.5,0.7-0.9,0.9c-0.3,0.2-0.6,0.3-0.9,0.3c-0.3,0-0.5-0.1-0.8-0.2
    c-0.2-0.1-0.4-0.3-0.5-0.6s-0.1-0.7-0.1-1.4v-2.7h0.8v2.8c0,0.5,0,0.8,0.1,0.9c0,0.1,0.1,0.3,0.2,0.4s0.2,0.1,0.4,0.1
    c0.3,0,0.6-0.1,0.9-0.4c0.3-0.3,0.6-0.6,0.8-1v-2.8H372.7z"/>
  <path d="M374.8,13.4c0.2-0.4,0.5-0.7,0.9-0.9c0.3-0.2,0.6-0.3,0.9-0.3c0.4,0,0.8,0.2,1.1,0.5c0.3,0.3,0.5,0.9,0.5,1.6
    c0,0.6-0.1,1-0.3,1.5c-0.2,0.4-0.5,0.8-0.8,1c-0.4,0.3-0.8,0.4-1.3,0.4c-0.1,0-0.4,0-0.7,0c0,0-0.1,0-0.2,0H374v-6.9h0.8V13.4z
     M374.8,14.3v2c0.3,0.1,0.6,0.1,0.8,0.1c0.5,0,0.9-0.2,1.2-0.6c0.3-0.4,0.5-0.9,0.5-1.5c0-0.5-0.1-0.8-0.3-1.1
    c-0.2-0.2-0.4-0.4-0.6-0.4c-0.2,0-0.5,0.1-0.8,0.4C375.3,13.6,375,13.9,374.8,14.3z"/>
  <path d="M383.3,16.7c-0.6,0.3-1.2,0.4-1.8,0.4c-0.4,0-0.8-0.1-1.2-0.3c-0.3-0.2-0.6-0.5-0.8-0.9c-0.2-0.4-0.3-0.8-0.3-1.3
    c0-0.4,0.1-0.9,0.3-1.3s0.5-0.7,0.8-0.9c0.3-0.2,0.7-0.3,1.2-0.3c0.6,0,1,0.2,1.4,0.6c0.3,0.4,0.5,1,0.5,1.9v0.2h-3.3
    c0,0.3,0.1,0.6,0.2,0.9c0.1,0.3,0.3,0.5,0.5,0.6s0.5,0.2,0.8,0.2c0.5,0,1.1-0.2,1.7-0.5V16.7z M380.1,14.2h2.4v-0.1
    c0-0.4-0.1-0.7-0.3-0.9s-0.4-0.3-0.8-0.3c-0.3,0-0.6,0.1-0.8,0.4S380.2,13.8,380.1,14.2z"/>
  <path d="M385,17.1v-4.8h0.8v1c0.2-0.4,0.5-0.7,0.9-0.9c0.3-0.2,0.7-0.3,1.1-0.3c0.3,0,0.6,0,0.9,0.1V14h-0.8v-1.1
    c-0.1,0-0.2,0-0.3,0c-0.3,0-0.6,0.1-0.9,0.3c-0.3,0.2-0.6,0.6-0.8,1v2.8H385z"/>
</g>
</svg>


